# xmcd
#
# Track frame offsets: 
#        150
#        21550
#        48995
#        68155
#        83735
#        98515
#        116542
#        142630
#        172167
#        198537
#        219415
#        242657
#        266897
#        290047
#        310792
#
# Disc length: 4387 seconds
#
# Revision: 2
# Processed by: cddbd v1.5.2PL0 Copyright (c) Steve Scherf et al.
# Submitted via: ExactAudioCopy v0.95b4
#
DISCID=d911210f
DTITLE=Various Artist - WANG DANG DOODLE
DYEAR=1996
DGENRE=Blues
TTITLE0=Big Dave McLean - I'm Ready 
TTITLE1=Big Dave McLean - Raining in My Heart
TTITLE2=Big Dave McLean - Me and The Devil
TTITLE3=JP Lepage - Say Baby
TTITLE4=JP Lepage - Eastbound Train
TTITLE5=JP Lepage - MotorHead Baby
TTITLE6=JP Lepage - Take Out Some Insurance
TTITLE7=Brent Parkin - Buzz Me
TTITLE8=Brent Parkin - That's Alright
TTITLE9=Brent Parkin - Mean Old Frisco
TTITLE10=Dave Mowat - I Don't Know
TTITLE11=Dave Mowat - Blue Midnight
TTITLE12=Dave Mowat - Peggy Day
TTITLE13=The Shuffleheads - Brand new Cadillac
TTITLE14=The Shuffleheads - Roly Oat Mama
EXTD=
EXTT0=
EXTT1=
EXTT2=
EXTT3=
EXTT4=
EXTT5=
EXTT6=
EXTT7=
EXTT8=
EXTT9=
EXTT10=
EXTT11=
EXTT12=
EXTT13=
EXTT14=
PLAYORDER=
